<?xml version="1.0" encoding="UTF-8"?>
<svg id="Layer_2" data-name="Layer 2" xmlns="http://www.w3.org/2000/svg" viewBox="0 0 314.01 87.3">
  <g id="Layer_1-2" data-name="Layer 1">
    <g>
      <path d="m27.69,14.2c-5.3,0-9.7,1-12.5,6.5-3.7,7.3,1.4,16.7,9.3,16.7,36.3,0,12.1-.2,48.4.1,18.4.2,28.8,19,22.3,34.8-3.8,9.2-12,15-21.6,15h-36.7c-2.7,0-5-.4-6.4-3.3-1.3-2.7-1.2-5.5.6-7.4,1.4-1.4,3.7-2.5,5.7-2.6,8.2-.3,15.2-.2,23.4-.2,20.1,0-7.9,0,12.3,0,4.4,0,8.1-1.6,10.1-6,2-4.3,1.9-8.7-1.2-12.3-1.6-1.8-4.1-2.9-6.4-3.8-1.7-.6-3.7-.5-5.6-.5h-26.4c-10,0-11.3.2-21.3-.1-9.7-.3-15.5-6.5-19.4-15.1C-1.91,26.6,0,17.6,5.29,9.8,9.89,3,16.99-.1,25.29,0,46.49.1,7.19,0,28.29,0h100.8c6.6,0,9.5,3.8,7.4,10.2-.5,1.5-2.2,3.4-3.9,3.5"/>
      <g>
        <path d="m109.59,85.6l-13.7-44.9h11.1l8.1,29.4,7.4-29.4h11l7.2,29.4,8.3-29.4h11.3l-13.9,44.9h-11l-7.4-28.8-7.3,28.8h-11.1Z"/>
        <path d="m187.59,70.8l11.4,2c-1.5,4.3-3.8,7.6-6.9,9.9-3.2,2.3-7.1,3.4-11.9,3.4-7.5,0-13.1-2.5-16.7-7.6-2.8-4.1-4.3-9.2-4.3-15.5,0-7.4,1.9-13.3,5.6-17.5s8.5-6.3,14.2-6.3c6.4,0,11.5,2.2,15.2,6.6s5.5,11.2,5.3,20.3h-28.6c.1,3.5,1,6.3,2.8,8.2,1.8,2,4,2.9,6.6,2.9,1.8,0,3.3-.5,4.5-1.5,1.2-1,2.2-2.6,2.8-4.9Zm.6-12c-.1-3.4-.9-6-2.6-7.8-1.6-1.8-3.6-2.7-5.9-2.7-2.5,0-4.6.9-6.2,2.8s-2.4,4.4-2.4,7.7h17.1Z"/>
        <path d="m216.09,86.1h-11.4v-44.9h10.6v6.4c1.8-3,3.5-5,4.9-6,1.5-1,3.1-1.4,4.9-1.4,2.6,0,5.1.7,7.5,2.2l-3.5,10.3c-1.9-1.3-3.7-1.9-5.4-1.9-1.6,0-3,.5-4.1,1.4s-2,2.6-2.6,5-1,7.4-1,15v13.9h.1Z"/>
        <path d="m249.99,85.6l-17.4-44.9h12l8.1,22.9,2.4,7.6c.6-1.9,1-3.2,1.2-3.8.4-1.3.8-2.5,1.2-3.8l8.2-22.9h11.8l-17.2,44.9h-10.3Z"/>
        <path d="m302.09,71.3l11.4,2c-1.5,4.3-3.8,7.6-6.9,9.9-3.2,2.3-7.1,3.4-11.9,3.4-7.5,0-13.1-2.5-16.7-7.6-2.8-4.1-4.3-9.2-4.3-15.5,0-7.4,1.9-13.3,5.6-17.5s8.5-6.3,14.2-6.3c6.4,0,11.5,2.2,15.2,6.6s5.5,11.2,5.3,20.3h-28.6c.1,3.5,1,6.3,2.8,8.2,1.8,2,4,2.9,6.6,2.9,1.8,0,3.3-.5,4.5-1.5,1.2-1,2.1-2.6,2.8-4.9Zm.6-12c-.1-3.4-.9-6-2.6-7.8-1.6-1.8-3.6-2.7-5.9-2.7-2.5,0-4.6.9-6.2,2.8s-2.4,4.4-2.4,7.7h17.1Z"/>
      </g>
    </g>
  </g>
</svg>